<svg version="1.1" id="Layer_1" xmlns="http://www.w3.org/2000/svg" xmlns:xlink="http://www.w3.org/1999/xlink" x="0px" y="0px"
	 width="100%" viewBox="0 0 1024 1024" enable-background="new 0 0 1024 1024" xml:space="preserve">
<path fill="#E56E53" opacity="1.000000" stroke="none" 
	d="
M418.861145,591.647461 
	C418.388458,604.254395 418.583832,616.399780 418.696747,628.556824 
	C418.914886,652.037964 418.494202,675.524780 418.386597,699.009399 
	C418.370331,702.561584 416.682556,704.228821 413.220398,704.250061 
	C411.054779,704.263306 408.888855,704.251587 406.723175,704.236572 
	C399.439362,704.186218 399.439392,704.183716 397.855225,696.410767 
	C382.791779,705.652588 366.988525,708.489014 350.328156,701.802551 
	C339.545929,697.475159 331.689850,689.815063 325.945984,679.806824 
	C315.433167,661.488831 318.168671,636.501282 332.755157,620.738464 
	C346.182617,606.228210 369.867523,597.700928 396.783783,613.036133 
	C398.728546,611.572388 397.968719,609.396240 397.984070,607.566772 
	C398.081909,595.905640 397.994141,584.243042 398.059357,572.581482 
	C398.096161,565.998779 399.139862,565.039429 405.554138,564.938538 
	C420.766418,564.699402 418.908234,565.291626 418.870544,578.195129 
	C418.857910,582.526794 418.867371,586.858521 418.861145,591.647461 
M358.558655,627.900452 
	C345.172638,634.247559 339.354187,644.032715 340.303619,658.601013 
	C341.289093,673.722229 356.082092,686.100403 371.396118,684.617981 
	C386.716492,683.134949 400.118896,667.739563 398.579041,653.392822 
	C396.516632,634.177429 377.683777,621.809509 358.558655,627.900452 
z"/>
<path fill="#9B7FD1" opacity="1.000000" stroke="none" 
	d="
M578.241516,321.882812 
	C591.795349,316.712036 604.643433,323.676056 610.772949,333.222260 
	C617.331543,343.436920 616.183716,356.030212 607.397522,365.881653 
	C602.745056,371.098206 597.764038,376.029846 592.801025,380.958893 
	C588.619324,385.111938 582.787781,385.778625 579.308899,382.745056 
	C575.350891,379.293762 575.069519,373.040222 579.176514,368.541412 
	C583.888306,363.380157 589.081055,358.661285 593.913452,353.605499 
	C596.101868,351.315887 598.109131,348.764954 596.683228,345.150757 
	C595.270813,341.570587 592.552002,339.490784 588.948486,338.726501 
	C584.761230,337.838409 582.100952,340.657410 579.532776,343.286835 
	C566.265259,356.870514 553.028259,370.484131 539.798279,384.104462 
	C533.880188,390.197235 528.030518,396.356506 522.100708,402.437744 
	C515.444031,409.264435 511.534576,409.366028 504.889038,402.663666 
	C485.303650,382.910828 465.780396,363.096405 446.237854,343.301117 
	C439.836426,336.816956 433.127594,337.839264 430.254669,345.621002 
	C428.983185,349.064911 430.537598,351.465302 432.663513,353.671600 
	C437.517426,358.709167 442.546661,363.577972 447.393524,368.622101 
	C451.170532,372.552917 451.408142,378.264252 448.132385,381.618591 
	C444.368561,385.472656 439.051544,385.506195 434.807220,381.415588 
	C429.530792,376.330261 424.410400,371.081451 419.272675,365.854065 
	C406.739990,353.102692 410.306732,331.729004 426.249695,323.614990 
	C436.783966,318.253662 449.929962,319.719910 458.947235,329.455383 
	C474.900177,346.678986 491.598602,363.212921 508.034576,379.987030 
	C509.633881,381.619293 511.154846,383.453247 513.741211,384.476654 
	C518.270569,379.985229 522.921936,375.500183 527.431702,370.877045 
	C541.157715,356.806061 554.828613,342.681305 568.522644,328.579071 
	C571.221680,325.799561 574.309998,323.571686 578.241516,321.882812 
z"/>
<path fill="#9B7FD1" opacity="1.000000" stroke="none" 
	d="
M562.100708,512.898315 
	C547.575745,497.951050 533.320984,483.234467 519.014404,468.568359 
	C513.568848,462.985962 513.417969,463.020538 508.074341,468.448792 
	C491.832672,484.947662 475.630310,501.485321 459.366425,517.962219 
	C444.192383,533.335022 420.151581,528.183044 413.556519,507.971100 
	C410.583527,498.859741 411.893341,490.100250 418.618469,482.813538 
	C423.699219,477.308472 429.004822,472.001343 434.378937,466.779663 
	C438.586456,462.691498 444.209625,462.469208 447.768372,465.920563 
	C451.347595,469.391663 451.302002,475.091858 447.273010,479.352692 
	C443.157867,483.704590 438.730774,487.762054 434.427124,491.934906 
	C429.334930,496.872345 428.549438,502.354614 432.383453,506.341858 
	C436.757202,510.890381 441.748810,510.322174 447.098175,504.831360 
	C466.390442,485.028992 485.717987,465.261047 505.035583,445.483429 
	C505.733521,444.768860 506.445038,444.064575 507.187439,443.396851 
	C512.148804,438.934937 515.222168,438.884033 520.124878,443.572449 
	C523.974243,447.253632 527.579041,451.190613 531.292236,455.014252 
	C547.074585,471.266144 562.844849,487.529938 578.645081,503.764465 
	C585.001770,510.295868 590.053894,511.109924 594.477356,506.429230 
	C598.709717,501.950745 597.656433,496.369141 591.528259,490.467651 
	C587.451050,486.541260 583.245117,482.725525 579.434021,478.552338 
	C575.613220,474.368591 575.708923,469.472473 579.149353,466.042053 
	C582.576599,462.624725 588.100098,462.730072 592.139709,466.572937 
	C597.448730,471.623322 602.722351,476.725616 607.758484,482.044952 
	C617.105713,491.917755 617.361450,506.749207 608.578003,517.093445 
	C599.235168,528.096497 584.033142,530.437927 572.601013,522.643433 
	C568.708496,519.989502 565.746704,516.335815 562.100708,512.898315 
z"/>
<path fill="#9B7FD1" opacity="1.000000" stroke="none" 
	d="
M614.557373,663.484985 
	C594.013306,663.465454 573.933533,663.465454 553.551086,663.465454 
	C553.738770,668.302246 556.105713,671.351379 558.458130,674.238220 
	C569.736450,688.078796 590.398926,688.169495 602.228455,674.538208 
	C607.407471,668.570374 607.407532,668.570312 614.344971,672.671814 
	C625.203979,679.091858 625.420227,680.526306 616.928101,689.802490 
	C603.558472,704.406494 581.871765,709.514160 563.274597,702.439026 
	C544.528992,695.307373 531.780151,676.894287 531.670532,656.793213 
	C531.538452,632.576721 546.028259,612.321228 567.524780,606.672302 
	C600.449768,598.020142 631.230286,623.359863 629.246826,657.382935 
	C628.982117,661.924194 627.138672,664.207458 622.501526,663.937744 
	C620.008301,663.792786 617.515015,663.648926 614.557373,663.484985 
M574.359558,626.525452 
	C565.863281,628.908142 559.137878,633.367065 555.218079,642.565002 
	C572.382812,642.565002 588.688782,642.565002 605.111084,642.565002 
	C602.657532,631.566772 590.362305,625.106506 574.359558,626.525452 
z"/>
<path fill="#616AC1" opacity="1.000000" stroke="none" 
	d="
M486.505127,682.676575 
	C495.650970,678.228271 499.990234,671.349060 499.881958,661.390381 
	C499.711761,645.731445 499.882904,630.068054 499.991211,614.407166 
	C500.044220,606.742126 500.814667,606.039612 508.216888,605.973694 
	C520.300598,605.866028 520.307739,605.866089 520.305847,617.863281 
	C520.301758,644.187988 520.298035,670.512756 520.275208,696.837463 
	C520.269287,703.623291 519.583008,704.283630 512.851379,704.285461 
	C510.518860,704.286072 508.184601,704.310120 505.854156,704.232544 
	C501.800507,704.097595 501.535095,703.913635 498.839386,699.980225 
	C491.903229,702.914124 484.825684,705.466064 476.940369,705.390686 
	C452.560394,705.157349 434.723297,687.432434 434.691406,662.972595 
	C434.669678,646.311340 434.666229,629.650024 434.705231,612.988892 
	C434.718536,607.315063 435.793549,606.262634 441.330597,606.031494 
	C454.960602,605.462524 455.067535,605.569214 455.037201,618.997070 
	C455.006378,632.658936 455.662872,646.363281 454.805817,659.972656 
	C453.544678,679.997925 472.455505,688.951782 486.505127,682.676575 
z"/>
<path fill="#616AC1" opacity="1.000000" stroke="none" 
	d="
M674.942749,702.380005 
	C658.503723,695.967651 651.366516,683.513428 650.791870,666.945496 
	C650.399536,655.635193 650.478333,644.294922 650.789856,632.980347 
	C650.920898,628.222412 649.200806,626.777771 644.734863,627.126404 
	C640.927185,627.423584 637.079468,627.248840 633.250061,627.215332 
	C629.659424,627.183899 627.657471,625.507568 627.683777,621.720459 
	C627.805542,604.180237 625.617920,606.794189 641.721008,606.639526 
	C650.659851,606.553650 650.659546,606.621704 650.663574,597.718567 
	C650.665955,592.389893 650.739258,587.060059 650.653076,581.732849 
	C650.594788,578.131042 652.240601,576.624939 655.799805,576.668640 
	C672.757874,576.876953 670.828064,574.429565 671.146362,591.231323 
	C671.239136,596.132263 668.835205,602.305298 672.373962,605.608093 
	C675.620911,608.638550 681.622070,606.367065 686.402649,606.559998 
	C690.056152,606.707397 693.728882,606.583252 697.384888,606.409058 
	C701.425720,606.216553 703.138428,608.054688 703.151306,612.042786 
	C703.207397,629.422302 703.832092,627.166016 688.749512,627.240845 
	C684.420044,627.262390 680.085999,627.363647 675.762268,627.204834 
	C672.398804,627.081238 670.911865,628.332397 670.953735,631.819275 
	C671.099731,643.973450 670.878784,656.135193 671.203979,668.283081 
	C671.446411,677.336853 678.227600,683.700867 687.317810,683.977112 
	C691.975464,684.118652 696.642334,683.941711 701.301575,684.053406 
	C704.618042,684.132935 706.460632,685.632141 706.393372,689.327698 
	C706.086365,706.200806 708.361389,704.279846 692.065186,704.344482 
	C686.411987,704.366882 680.720703,704.782776 674.942749,702.380005 
z"/>
<path fill="#616AC1" opacity="1.000000" stroke="none" 
	d="
M363.730286,407.840149 
	C354.857971,411.769379 346.331085,415.536621 337.804291,419.304047 
	C335.472351,420.334381 333.060150,421.398529 333.125793,424.476196 
	C333.193726,427.660583 335.586792,428.975830 338.123413,430.055420 
	C362.017548,440.225067 385.916290,450.383911 409.804016,460.568573 
	C413.502869,462.145569 417.362946,463.678345 418.092957,468.364685 
	C418.638031,471.863983 417.812347,474.934143 414.903931,477.303680 
	C411.943024,479.715912 408.887177,479.634430 405.554413,478.212250 
	C387.024628,470.305176 368.478088,462.437347 349.930359,454.572479 
	C342.879639,451.582764 335.751617,448.767944 328.764282,445.638062 
	C319.633453,441.548096 314.879944,434.137878 314.938599,424.331451 
	C314.996002,414.739258 319.575623,407.513336 328.708405,403.576416 
	C354.234467,392.572601 379.742493,381.527069 405.260773,370.505219 
	C411.210327,367.935516 414.923706,368.813446 417.184052,373.283844 
	C419.802521,378.462585 418.130737,384.299194 412.703278,386.768921 
	C401.645630,391.800598 390.423462,396.471375 379.258514,401.266174 
	C374.210663,403.433990 369.137451,405.542725 363.730286,407.840149 
z"/>
<path fill="#616AC1" opacity="1.000000" stroke="none" 
	d="
M691.018677,400.878540 
	C694.088257,402.274841 696.877319,403.393921 699.514709,404.798096 
	C708.239258,409.443390 712.081421,416.833435 711.364197,426.615356 
	C710.690613,435.802216 705.941833,442.169281 697.556091,445.759460 
	C673.220947,456.178040 648.872864,466.567230 624.487854,476.868591 
	C616.632935,480.186890 611.720032,479.067657 609.437622,473.859406 
	C606.969543,468.227478 609.472229,463.836304 617.467651,460.421844 
	C640.740417,450.483002 664.054871,440.641846 687.353882,430.764343 
	C687.813171,430.569641 688.316956,430.457367 688.741943,430.207794 
	C691.138367,428.800629 694.520020,427.865021 694.370667,424.534332 
	C694.230835,421.415436 691.306030,420.048401 688.628235,418.907318 
	C664.737000,408.726715 640.848633,398.539368 616.967224,388.335754 
	C615.287781,387.618164 613.537048,386.948425 612.050110,385.922180 
	C608.015137,383.137421 606.908386,377.827362 609.270020,373.476501 
	C611.288574,369.757568 615.494080,368.253723 620.101318,370.144989 
	C630.111145,374.253906 640.037903,378.567871 649.961609,382.883118 
	C663.548584,388.791290 677.101318,394.778564 691.018677,400.878540 
z"/>
<path fill="#E56E53" opacity="1.000000" stroke="none" 
	d="
M475.347473,420.665344 
	C472.601715,417.734314 470.042938,415.112244 467.572266,412.409607 
	C463.870270,408.360016 463.718262,402.896332 467.136658,399.414215 
	C470.666901,395.818176 475.603638,395.485840 479.647614,399.260651 
	C486.217590,405.393341 492.606354,411.742157 498.751587,418.299683 
	C502.387756,422.179718 502.463623,426.534668 498.756714,430.429352 
	C492.452332,437.053070 485.814301,443.383179 479.016235,449.503143 
	C475.509094,452.660461 469.955017,451.819824 466.861816,448.373749 
	C463.956451,445.136902 463.839233,439.942139 466.921356,436.484985 
	C469.575653,433.507660 472.460815,430.713837 475.430328,428.046417 
	C478.152283,425.601440 478.215088,423.362732 475.347473,420.665344 
z"/>
<path fill="#616AC1" opacity="1.000000" stroke="none" 
	d="
M559.625854,448.649048 
	C554.330933,452.237732 550.459473,452.165802 546.346191,448.247131 
	C540.438904,442.619354 534.611023,436.898132 528.961548,431.013031 
	C524.631104,426.501831 524.439514,422.324158 528.655701,417.758667 
	C534.523560,411.404694 540.656250,405.275299 546.954895,399.346497 
	C550.892639,395.639923 556.769897,395.917175 560.033508,399.365601 
	C563.262634,402.777618 563.093140,408.462433 559.508484,412.496490 
	C556.524231,415.854797 553.483337,419.170898 550.318054,422.357147 
	C548.453613,424.233948 548.661499,425.699646 550.481934,427.368317 
	C553.059509,429.730988 555.595398,432.142426 558.079102,434.603607 
	C562.863281,439.344452 563.221558,442.269043 559.625854,448.649048 
z"/>
</svg>